# xmcd
#
# Track frame offsets:
#	150
#	10695
#	41931
#	73034
#	104315
#	145321
#	170219
#	202336
#	231622
#	274652
#
# Disc length: 4456 seconds
#
# Revision: 1
# Processed by: cddbd v1.5.2PL0 Copyright (c) Steve Scherf et al.
# Submitted via: audiograbber 1.82.01
#
DISCID=9f11660a
DTITLE=Eric Clapton - Play With Fire Revisited - Disc 1
DYEAR=0000
DGENRE=Rock
TTITLE0=Intro
TTITLE1=Pretending
TTITLE2=No Alabis
TTITLE3=Running On Faith
TTITLE4=I Shot The Sheriff
TTITLE5=White Room
TTITLE6=Can't Find My Way Home
TTITLE7=Bad Love
TTITLE8=Before You Accuse Me
TTITLE9=Old Love
EXTD=
EXTT0=
EXTT1=
EXTT2=
EXTT3=
EXTT4=
EXTT5=
EXTT6=
EXTT7=
EXTT8=
EXTT9=
PLAYORDER=
